<svg width="26" height="18" viewBox="0 0 26 18" fill="none" xmlns="http://www.w3.org/2000/svg">
<path fill-rule="evenodd" clip-rule="evenodd" d="M12.352 2.01109C9.88598 2.1649 7.46521 3.09353 5.34054 4.70073C3.99113 5.7215 2.84804 6.97695 2.30466 8.03503C1.90654 8.81029 1.90092 9.15789 2.27421 9.91975C2.79352 10.9796 3.94281 12.2555 5.32986 13.3119C6.0349 13.8489 6.77863 14.3096 7.58513 14.7089C8.17954 15.0032 8.5829 15.1703 9.20483 15.3796C10.0935 15.6787 10.8714 15.8492 11.8599 15.9615C12.2648 16.0076 13.6264 16.0139 14.0537 15.9718C16.3681 15.7435 18.526 14.9027 20.5017 13.4594C22.1064 12.2871 23.5331 10.6333 23.9031 9.51649C24.0311 9.13014 24.0321 8.89209 23.9073 8.51591C23.6766 7.82062 23.0547 6.92011 22.1941 6.03538C21.5013 5.32308 20.8001 4.74277 19.9461 4.17478C18.0855 2.93735 16.053 2.21196 13.9409 2.03146C13.5839 2.00094 12.697 1.98959 12.352 2.01109ZM12.4852 3.03625C12.1937 3.05505 11.6833 3.11332 11.3986 3.16032C9.33969 3.50008 7.2674 4.49955 5.44088 6.03378C5.09357 6.32551 4.24651 7.16566 4.00392 7.45902C3.47221 8.10196 3.15397 8.65595 3.13085 8.97886C3.08853 9.56959 4.101 10.9043 5.45287 12.0398C7.26554 13.5625 9.50189 14.5937 11.6344 14.8903C12.5547 15.0183 13.5955 15.0115 14.511 14.8715C16.6386 14.5461 18.7612 13.5429 20.6171 11.9855C21.0349 11.6349 21.8178 10.8437 22.0985 10.4884C22.5818 9.87657 22.8902 9.30253 22.8902 9.01469C22.8902 8.70299 22.5265 8.07555 21.9593 7.40912C20.9087 6.17443 19.3842 5.00203 17.8159 4.22257C16.5496 3.59325 15.2866 3.21414 13.9922 3.07488C13.7079 3.04429 12.7438 3.01958 12.4852 3.03625Z" fill="black"/>
<path d="M17.5 9C17.5 11.5 15.5 13.5 13 13.5C10.5 13.5 8.5 11.5 8.5 9C8.5 6.5 10.5 4.5 13 4.5C15.5 4.5 17.5 6.5 17.5 9ZM11.0204 9C11.0204 10.0933 11.9067 10.9796 13 10.9796C14.0933 10.9796 14.9796 10.0933 14.9796 9C14.9796 7.9067 14.0933 7.02041 13 7.02041C11.9067 7.02041 11.0204 7.9067 11.0204 9Z" fill="black"/>
<rect x="3.93856" y="0.062093" width="24.8286" height="1.93333" rx="0.966667" transform="rotate(40 3.93856 0.062093)" fill="black" stroke="white" stroke-width="0.828571"/>
</svg>
